PathFileType	4	(X/Y/Z)	Walk9.trc
DataRate	CameraRate	NumFrames	NumMarkers	Units	OrigDataRate	OrigDataStartFrame	OrigNumFrames
200.000000	200.000000	9	59	mm	200.000000	409	587
Frame#	Times		LFHD		RFHD		CLAV		STRN		LASI		RASI		RACR1		RUA1		RElbow		RFA1		RWRR		RWRU		RCAR		LACR1		LUA1		LElbow		LFA1		LWRR		RTH3		RTH2		RTB1		RTB2		RTB4		LTH1		LTH3		LTH2		LTB1		LTB2		LTB4		LMT1		LTB3		LCAR		LLFC		LWRU		LMFC		LToe		LMT5		RTB3		RMFC		RMMAL		RElbowM		LTH4		RTH4		RMT1		RLFC		RToe		LBHD		RCAL		RTH1		RBack		RPSI		C7		T10		LPSI		LElbowM		LMMAL		LLMAL		RBHD		LCAL
			X1	Y1	Z1	X2	Y2	Z2	X3	Y3	Z3	X4	Y4	Z4	X5	Y5	Z5	X6	Y6	Z6	X7	Y7	Z7	X8	Y8	Z8	X9	Y9	Z9	X10	Y10	Z10	X11	Y11	Z11	X12	Y12	Z12	X13	Y13	Z13	X14	Y14	Z14	X15	Y15	Z15	X16	Y16	Z16	X17	Y17	Z17	X18	Y18	Z18	X19	Y19	Z19	X20	Y20	Z20	X21	Y21	Z21	X22	Y22	Z22	X23	Y23	Z23	X24	Y24	Z24	X25	Y25	Z25	X26	Y26	Z26	X27	Y27	Z27	X28	Y28	Z28	X29	Y29	Z29	X30	Y30	Z30	X31	Y31	Z31	X32	Y32	Z32	X33	Y33	Z33	X34	Y34	Z34	X35	Y35	Z35	X36	Y36	Z36	X37	Y37	Z37	X38	Y38	Z38	X39	Y39	Z39	X40	Y40	Z40	X41	Y41	Z41	X42	Y42	Z42	X43	Y43	Z43	X44	Y44	Z44	X45	Y45	Z45	X46	Y46	Z46	X47	Y47	Z47	X48	Y48	Z48	X49	Y49	Z49	X50	Y50	Z50	X51	Y51	Z51	X52	Y52	Z52	X53	Y53	Z53	X54	Y54	Z54	X55	Y55	Z55	X56	Y56	Z56	X57	Y57	Z57	X58	Y58	Z58	X59	Y59	Z59

409	2.045	642.87	1658.6	-15.052	644.34	1660.4	83.884	630.4	1407.5	40.233	691.84	1249.6	28.379	549.66	1002	-156.85	598.33	987.7	209.16	521.8	1489.2	216.03	487.76	1320.4	329	487.64	1170.4	374.55	513.39	1018.8	386.69	534	902.28	314.73	524.39	904.85	396	556.69	820.91	361.47	506.82	1479.1	-137.53	465.67	1310.8	-229.66	450.33	1149	-285.61	476.47	1011.7	-305.07	537.57	889.37	-255.75	565.79	612.32	200.11	598.28	711.97	203.91	621.63	380.74	101.04	590.84	292.22	149.86	603.63	296.45	89.763	522.38	770.34	-190.05	558.58	602.31	-189.54	596.25	699.05	-173.93	553.04	389.04	-129.21	470.17	336.01	-162.25	500.56	326.16	-108.52	374.81	60.961	-76.438	440.09	265.15	-90.814	549.99	804.78	-293.09	543.47	524.04	-190.9	487.69	871.5	-308.96	576.22	507.14	-35.02	412.68	38.385	-120.84	317.75	84.328	-144.56	586.12	212.99	78.409	553.77	507.19	32.383	525.23	84.975	17.606	432.55	1104.3	276.75	539.33	687.11	-190.26	543.27	693.41	216.31	654.32	26.251	40.209	570.64	497.39	187.63	703.28	30.199	70.106	485.69	1594.9	-24.858	433.72	48.183	61.8	519.64	775.09	234	373.38	1374.6	160.45	321.08	1039.5	86.351	437.61	1492.2	47.293	364.65	1177.2	45.963	322.96	1043.8	0.11085	394.55	1088.2	-190.14	305.35	184.02	-3.6873	273.23	190.58	-87.624	503.08	1601	124.05	220.04	195.15	-26.77
410	2.05	648.65	1659.6	-14.923	650.16	1661.4	84.011	636.02	1408.6	40.249	697.51	1250.6	28.322	556.25	1003	-156.37	603.84	989.44	208.93	527.31	1490.1	216.14	493.59	1321.2	329.1	494.14	1171.3	374.88	521.12	1020	387.02	542.95	903.67	315.01	533.12	906.16	396.31	566.23	822.48	361.88	512.41	1480.3	-137.4	470.45	1312.2	-229.62	453.84	1150.5	-285.43	478.87	1013.1	-304.85	539.15	890.27	-255.52	567.94	612.47	200.14	601.41	711.79	203.95	622.36	380.52	101.16	591.3	292.09	149.93	604.18	296.27	89.855	530.56	771.72	-189.77	568.47	604.05	-188.82	605.12	701.15	-173.27	565.91	390.77	-128.66	484.33	336.02	-162.13	514.81	326.73	-108.36	395.9	59.46	-77.645	455.62	264.34	-90.992	550.78	805.45	-292.74	554.15	525.64	-190.02	489.07	872.73	-308.66	586.25	509.11	-34.247	434.59	38.25	-121.82	338.41	81.513	-145.89	586.49	212.88	78.485	555.03	507.2	32.313	525.34	85.009	17.598	439.86	1104.8	276.8	548.36	688.66	-189.77	546.21	693.78	216.32	654.31	26.287	40.27	571.79	497.4	187.64	703.3	30.185	70.194	491.41	1596	-24.668	433.68	48.291	61.625	523.35	775.67	234.05	379.07	1375.3	160.49	326.69	1040.6	86.064	443.32	1493.2	47.459	370.48	1178.1	45.804	328.87	1044.8	-0.32193	397.6	1090.2	-189.87	322.36	179.91	-4.5581	290.44	185.86	-88.601	508.87	1602.1	124.23	236.7	188.67	-28.006
411	2.055	654.41	1660.5	-14.832	655.96	1662.2	84.101	641.63	1409.6	40.252	703.15	1251.6	28.273	562.86	1004	-155.84	609.34	991.13	208.69	532.8	1491	216.24	499.41	1321.9	329.19	500.64	1172.2	375.22	528.87	1021.1	387.35	551.88	905.02	315.3	541.85	907.43	396.6	575.76	824.02	362.27	517.99	1481.4	-137.3	475.23	1313.5	-229.6	457.38	1151.9	-285.27	481.3	1014.3	-304.63	540.76	891.15	-255.28	570.12	612.61	200.14	604.57	711.59	203.95	623.1	380.3	101.25	591.77	291.96	149.99	604.73	296.09	89.92	538.69	773.07	-189.49	578.28	605.77	-188.08	613.89	703.2	-172.59	578.71	392.49	-128.09	498.48	336.02	-161.98	529.07	327.29	-108.18	417.13	57.995	-78.829	471.23	263.5	-91.167	551.61	806.1	-292.37	564.72	527.21	-189.12	490.48	873.92	-308.35	596.16	511.02	-33.432	456.57	38.198	-122.78	359.2	78.706	-147.18	586.85	212.76	78.537	556.33	507.2	32.229	525.45	85.04	17.584	447.15	1105.2	276.85	557.32	690.18	-189.29	549.18	694.14	216.31	654.31	26.32	40.325	572.96	497.41	187.63	703.32	30.17	70.275	497.11	1597	-24.507	433.63	48.405	61.441	527.12	776.23	234.1	384.74	1376	160.53	332.29	1041.7	85.762	449.01	1494.1	47.618	376.3	1179	45.622	334.76	1045.8	-0.76134	400.66	1092.1	-189.62	339.61	175.72	-5.4171	307.86	181.07	-89.551	514.64	1603.1	124.37	253.64	182.09	-29.209
412	2.06	660.16	1661.3	-14.778	661.75	1663	84.154	647.23	1410.5	40.242	708.78	1252.6	28.233	569.51	1004.8	-155.26	614.83	992.75	208.43	538.29	1491.8	216.33	505.22	1322.7	329.28	507.15	1173	375.57	536.62	1022.2	387.67	560.81	906.34	315.57	550.58	908.66	396.89	585.28	825.53	362.63	523.58	1482.5	-137.21	480.01	1314.8	-229.6	460.94	1153.2	-285.13	483.77	1015.6	-304.43	542.4	891.98	-255.04	572.34	612.75	200.13	607.75	711.39	203.9	623.85	380.07	101.31	592.27	291.82	150.03	605.28	295.91	89.96	546.77	774.37	-189.23	587.98	607.44	-187.33	622.57	705.21	-171.88	591.45	394.21	-127.5	512.63	336	-161.82	543.34	327.84	-108	438.46	56.581	-79.998	486.92	262.65	-91.339	552.48	806.72	-292	575.17	528.74	-188.19	491.92	875.07	-308.05	605.96	512.88	-32.581	478.59	38.238	-123.75	380.1	75.932	-148.43	587.22	212.64	78.566	557.65	507.18	32.14	525.56	85.066	17.565	454.42	1105.7	276.93	566.2	691.66	-188.8	552.19	694.48	216.29	654.31	26.348	40.375	574.15	497.41	187.6	703.35	30.157	70.349	502.8	1597.9	-24.375	433.58	48.522	61.256	530.94	776.77	234.13	390.41	1376.6	160.56	337.89	1042.7	85.441	454.7	1494.9	47.767	382.11	1179.8	45.413	340.63	1046.6	-1.2074	403.75	1094	-189.41	357.08	171.48	-6.2586	325.48	176.24	-90.468	520.39	1604	124.48	270.87	175.45	-30.367
413	2.065	665.89	1662	-14.757	667.53	1663.8	84.173	652.82	1411.3	40.219	714.4	1253.5	28.203	576.16	1005.7	-154.64	620.29	994.29	208.16	543.76	1492.6	216.39	511.03	1323.3	329.37	513.68	1173.7	375.93	544.39	1023.2	387.97	569.73	907.62	315.83	559.32	909.85	397.15	594.78	826.99	362.97	529.16	1483.4	-137.14	484.79	1316	-229.62	464.53	1154.6	-285.02	486.29	1016.7	-304.23	544.08	892.77	-254.8	574.6	612.88	200.11	610.97	711.17	203.82	624.6	379.84	101.35	592.79	291.68	150.04	605.83	295.72	89.977	554.79	775.62	-188.97	597.58	609.08	-186.56	631.16	707.16	-171.13	604.11	395.91	-126.91	526.76	335.98	-161.63	557.6	328.38	-107.81	459.86	55.235	-81.16	502.67	261.8	-91.508	553.4	807.3	-291.61	585.49	530.23	-187.23	493.42	876.17	-307.75	615.66	514.67	-31.695	500.61	38.38	-124.73	401.07	73.213	-149.65	587.59	212.51	78.575	558.98	507.14	32.053	525.68	85.089	17.541	461.68	1106	277.02	575	693.1	-188.32	555.25	694.81	216.27	654.31	26.373	40.421	575.36	497.4	187.56	703.38	30.143	70.417	508.48	1598.8	-24.272	433.54	48.642	61.075	534.81	777.28	234.16	396.07	1377.2	160.59	343.47	1043.7	85.096	460.38	1495.7	47.905	387.91	1180.6	45.176	346.49	1047.5	-1.6599	406.86	1095.8	-189.24	374.78	167.21	-7.0766	343.3	171.39	-91.345	526.13	1604.8	124.57	288.4	168.76	-31.47
414	2.07	671.62	1662.7	-14.769	673.29	1664.5	84.16	658.39	1412.1	40.186	720	1254.3	28.185	582.83	1006.5	-154	625.74	995.73	207.9	549.21	1493.2	216.44	516.85	1323.9	329.46	520.22	1174.4	376.29	552.18	1024.2	388.26	578.63	908.86	316.07	568.08	910.99	397.4	604.27	828.41	363.26	534.76	1484.3	-137.09	489.58	1317.1	-229.66	468.15	1155.8	-284.92	488.85	1017.9	-304.04	545.78	893.52	-254.55	576.9	612.99	200.08	614.21	710.93	203.71	625.37	379.61	101.36	593.32	291.53	150.04	606.38	295.52	89.973	562.76	776.81	-188.72	607.07	610.67	-185.77	639.65	709.05	-170.36	616.7	397.59	-126.3	540.85	335.95	-161.44	571.84	328.92	-107.62	481.34	53.969	-82.32	518.47	260.97	-91.674	554.36	807.85	-291.22	595.68	531.68	-186.26	494.95	877.22	-307.45	625.26	516.39	-30.781	522.62	38.631	-125.73	422.1	70.569	-150.83	587.97	212.38	78.565	560.32	507.09	31.97	525.79	85.106	17.511	468.92	1106.3	277.14	583.71	694.49	-187.83	558.35	695.11	216.23	654.31	26.395	40.464	576.6	497.38	187.52	703.41	30.131	70.479	514.16	1599.5	-24.2	433.5	48.762	60.905	538.74	777.77	234.18	401.71	1377.7	160.61	349.05	1044.6	84.724	466.05	1496.4	48.027	393.7	1181.3	44.913	352.33	1048.3	-2.119	409.99	1097.6	-189.1	392.69	162.92	-7.8644	361.29	166.56	-92.174	531.86	1605.6	124.62	306.2	162.08	-32.509
415	2.075	677.34	1663.3	-14.81	679.05	1665.1	84.117	663.96	1412.8	40.143	725.58	1255	28.18	589.49	1007.2	-153.35	631.16	997.06	207.65	554.66	1493.8	216.46	522.67	1324.4	329.54	526.79	1175	376.67	560	1025.2	388.53	587.52	910.05	316.29	576.84	912.07	397.62	613.74	829.78	363.51	540.36	1485.2	-137.06	494.36	1318.2	-229.71	471.81	1157	-284.85	491.46	1018.9	-303.86	547.53	894.21	-254.3	579.23	613.09	200.05	617.48	710.66	203.56	626.15	379.36	101.36	593.88	291.37	150.03	606.94	295.31	89.951	570.66	777.95	-188.48	616.44	612.21	-184.97	648.04	710.87	-169.57	629.21	399.27	-125.7	554.91	335.93	-161.22	586.05	329.46	-107.42	502.85	52.797	-83.481	534.31	260.15	-91.834	555.37	808.35	-290.81	605.74	533.08	-185.27	496.54	878.21	-307.15	634.76	518.04	-29.841	544.6	38.997	-126.76	443.16	68.018	-151.99	588.35	212.23	78.538	561.66	507.03	31.896	525.9	85.119	17.475	476.15	1106.6	277.28	592.34	695.82	-187.35	561.5	695.39	216.19	654.31	26.413	40.503	577.88	497.35	187.46	703.44	30.119	70.537	519.83	1600.2	-24.156	433.47	48.881	60.749	542.72	778.24	234.19	407.35	1378.2	160.62	354.61	1045.4	84.324	471.72	1497.1	48.129	399.48	1181.9	44.624	358.15	1049	-2.585	413.15	1099.3	-188.99	410.8	158.65	-8.6152	379.45	161.76	-92.949	537.58	1606.3	124.65	324.28	155.41	-33.477
416	2.08	683.05	1663.9	-14.879	684.8	1665.7	84.046	669.53	1413.5	40.092	731.16	1255.6	28.185	596.13	1007.8	-152.69	636.57	998.28	207.42	560.1	1494.4	216.47	528.51	1324.9	329.63	533.39	1175.6	377.04	567.84	1026	388.78	596.4	911.2	316.48	585.63	913.11	397.82	623.21	831.1	363.72	545.97	1485.9	-137.05	499.15	1319.2	-229.78	475.5	1158.1	-284.79	494.11	1019.9	-303.69	549.31	894.86	-254.05	581.6	613.17	200	620.77	710.38	203.39	626.94	379.11	101.33	594.46	291.19	150	607.5	295.1	89.915	578.49	779.03	-188.24	625.7	613.69	-184.16	656.32	712.62	-168.75	641.63	400.93	-125.1	568.91	335.91	-160.99	600.22	330.01	-107.23	524.39	51.73	-84.643	550.19	259.36	-91.988	556.42	808.81	-290.4	615.66	534.42	-184.27	498.17	879.15	-306.86	644.17	519.61	-28.881	566.51	39.482	-127.82	464.25	65.572	-153.11	588.73	212.06	78.499	562.98	506.96	31.831	526.01	85.124	17.433	483.37	1106.8	277.44	600.86	697.1	-186.86	564.69	695.64	216.15	654.32	26.429	40.539	579.18	497.31	187.39	703.48	30.109	70.592	525.49	1600.9	-24.143	433.46	48.999	60.611	546.75	778.67	234.19	412.98	1378.6	160.62	360.17	1046.2	83.893	477.38	1497.7	48.207	405.25	1182.5	44.311	363.97	1049.6	-3.0583	416.33	1100.9	-188.92	429.12	154.42	-9.3227	397.78	157.01	-93.666	543.3	1607	124.65	342.62	148.8	-34.366
417	2.085	688.76	1664.3	-14.973	690.55	1666.2	83.949	675.09	1414.1	40.033	736.73	1256.2	28.202	602.75	1008.4	-152.03	641.95	999.39	207.2	565.53	1494.8	216.46	534.35	1325.3	329.71	540.02	1176.1	377.42	575.71	1026.8	389.02	605.25	912.29	316.65	594.43	914.09	397.99	632.66	832.37	363.88	551.6	1486.6	-137.07	503.95	1320.2	-229.85	479.22	1159.1	-284.74	496.82	1020.8	-303.52	551.14	895.44	-253.79	584.01	613.22	199.96	624.09	710.07	203.2	627.74	378.84	101.29	595.05	291.01	149.97	608.08	294.87	89.868	586.25	780.04	-188.01	634.83	615.11	-183.34	664.5	714.29	-167.92	653.96	402.57	-124.5	582.86	335.91	-160.75	614.36	330.56	-107.03	545.94	50.78	-85.804	566.09	258.6	-92.133	557.53	809.22	-289.97	625.44	535.7	-183.26	499.84	880.03	-306.56	653.5	521.11	-27.906	588.36	40.091	-128.91	485.35	63.246	-154.19	589.11	211.89	78.45	564.3	506.89	31.775	526.11	85.122	17.383	490.57	1106.9	277.63	609.29	698.31	-186.37	567.91	695.86	216.11	654.33	26.442	40.574	580.51	497.25	187.32	703.52	30.101	70.643	531.16	1601.4	-24.158	433.46	49.115	60.491	550.82	779.06	234.19	418.6	1378.9	160.61	365.72	1046.9	83.43	483.03	1498.2	48.258	411.02	1183	43.974	369.78	1050.2	-3.5388	419.54	1102.5	-188.88	447.62	150.25	-9.9819	416.25	152.35	-94.318	549	1607.6	124.62	361.22	142.26	-35.173
